HIERARCHY
ROOT hip
{
  OFFSET 96.5243 87.1835 41.8298
  CHANNELS 6 Xposition Yposition Zposition Zrotation Xrotation Yrotation
  JOINT abdomen
  {
    OFFSET 0 20.6881 -0.73152
    CHANNELS 3 Zrotation Xrotation Yrotation
    JOINT chest
    {
      OFFSET 0 11.7043 -0.48768
      CHANNELS 3 Zrotation Xrotation Yrotation
      JOINT neck
      {
        OFFSET 0 22.1894 -2.19456
        CHANNELS 3 Zrotation Xrotation Yrotation
        JOINT head
        {
          OFFSET -0.24384 7.07133 1.2192
          CHANNELS 3 Zrotation Xrotation Yrotation
          JOINT leftEye
          {
            OFFSET 4.14528 8.04674 8.04672
            CHANNELS 3 Zrotation Xrotation Yrotation
            End Site
            {
              OFFSET 1 0 0
            }
          }
          JOINT rightEye
          {
            OFFSET -3.6576 8.04674 8.04672
            CHANNELS 3 Zrotation Xrotation Yrotation
            End Site
            {
              OFFSET 1 0 0
            }
          }
        }
      }
      JOINT rCollar
      {
        OFFSET -2.68224 19.2634 -4.8768
        CHANNELS 3 Zrotation Xrotation Yrotation
        JOINT rShldr
        {
          OFFSET -8.77824 -1.95073 1.46304
          CHANNELS 3 Zrotation Xrotation Yrotation
          JOINT rForeArm
          {
            OFFSET -28.1742 -1.7115 0.48768
            CHANNELS 3 Zrotation Xrotation Yrotation
            JOINT rHand
            {
              OFFSET -22.5879 0.773209 7.07136
              CHANNELS 3 Zrotation Xrotation Yrotation
              JOINT rThumb1
              {
                OFFSET -1.2192 -0.487915 3.41376
                CHANNELS 3 Zrotation Xrotation Yrotation
                JOINT rThumb2
                {
                  OFFSET -3.37035 -0.52449 3.41376
                  CHANNELS 3 Zrotation Xrotation Yrotation
                  End Site
                  {
                    OFFSET -1.78271 -1.18214 1.43049
                  }
                }
              }
              JOINT rIndex1
              {
                OFFSET -7.75947 0.938293 5.60832
                CHANNELS 3 Zrotation Xrotation Yrotation
                JOINT rIndex2
                {
                  OFFSET -2.54057 -0.884171 1.56538
                  CHANNELS 3 Zrotation Xrotation Yrotation
                  End Site
                  {
                    OFFSET -1.62519 -0.234802 1.16502
                  }
                }
              }
              JOINT rMid1
              {
                OFFSET -8.24714 1.18213 3.41376
                CHANNELS 3 Zrotation Xrotation Yrotation
                JOINT rMid2
                {
                  OFFSET -3.10165 -0.590103 1.0647
                  CHANNELS 3 Zrotation Xrotation Yrotation
                  End Site
                  {
                    OFFSET -2.48547 -0.328903 0.83742
                  }
                }
              }
              JOINT rRing1
              {
                OFFSET -8.82822 0.546677 1.51678
                CHANNELS 3 Zrotation Xrotation Yrotation
                JOINT rRing2
                {
                  OFFSET -2.60934 -0.819778 -0.0198488
                  CHANNELS 3 Zrotation Xrotation Yrotation
                  End Site
                  {
                    OFFSET -2.33842 -0.294052 0.168128
                  }
                }
              }
              JOINT rPinky1
              {
                OFFSET -8.27202 -0.0477905 -0.4584
                CHANNELS 3 Zrotation Xrotation Yrotation
                JOINT rPinky2
                {
                  OFFSET -1.82734 -0.647385 -0.700984
                  CHANNELS 3 Zrotation Xrotation Yrotation
                  End Site
                  {
                    OFFSET -1.69225 -0.51767 -0.607171
                  }
                }
              }
            }
          }
        }
      }
      JOINT lCollar
      {
        OFFSET 2.68224 19.2634 -4.8768
        CHANNELS 3 Zrotation Xrotation Yrotation
        JOINT lShldr
        {
          OFFSET 8.77824 -1.95073 1.46304
          CHANNELS 3 Zrotation Xrotation Yrotation
          JOINT lForeArm
          {
            OFFSET 28.1742 -1.7115 0.48768
            CHANNELS 3 Zrotation Xrotation Yrotation
            JOINT lHand
            {
              OFFSET 22.5879 0.773209 7.07136
              CHANNELS 3 Zrotation Xrotation Yrotation
              JOINT lThumb1
              {
                OFFSET 1.2192 -0.487915 3.41376
                CHANNELS 3 Zrotation Xrotation Yrotation
                JOINT lThumb2
                {
                  OFFSET 3.37035 -0.52449 3.41376
                  CHANNELS 3 Zrotation Xrotation Yrotation
                  End Site
                  {
                    OFFSET 1.78271 -1.18214 1.43049
                  }
                }
              }
              JOINT lIndex1
              {
                OFFSET 7.75947 0.938293 5.60832
                CHANNELS 3 Zrotation Xrotation Yrotation
                JOINT lIndex2
                {
                  OFFSET 2.54057 -0.884171 1.56538
                  CHANNELS 3 Zrotation Xrotation Yrotation
                  End Site
                  {
                    OFFSET 1.62519 -0.234802 1.16502
                  }
                }
              }
              JOINT lMid1
              {
                OFFSET 8.24714 1.18213 3.41376
                CHANNELS 3 Zrotation Xrotation Yrotation
                JOINT lMid2
                {
                  OFFSET 3.10165 -0.590103 1.0647
                  CHANNELS 3 Zrotation Xrotation Yrotation
                  End Site
                  {
                    OFFSET 2.48547 -0.328903 0.83742
                  }
                }
              }
              JOINT lRing1
              {
                OFFSET 8.82822 0.546677 1.51678
                CHANNELS 3 Zrotation Xrotation Yrotation
                JOINT lRing2
                {
                  OFFSET 2.60934 -0.819778 -0.0198488
                  CHANNELS 3 Zrotation Xrotation Yrotation
                  End Site
                  {
                    OFFSET 2.33842 -0.294052 0.168128
                  }
                }
              }
              JOINT lPinky1
              {
                OFFSET 8.27202 -0.0477905 -0.4584
                CHANNELS 3 Zrotation Xrotation Yrotation
                JOINT lPinky2
                {
                  OFFSET 1.82734 -0.647385 -0.700984
                  CHANNELS 3 Zrotation Xrotation Yrotation
                  End Site
                  {
                    OFFSET 1.69225 -0.51767 -0.607171
                  }
                }
              }
            }
          }
        }
      }
    }
  }
  JOINT rButtock
  {
    OFFSET -8.77824 4.35084 1.2192
    CHANNELS 3 Zrotation Xrotation Yrotation
    JOINT rThigh
    {
      OFFSET 0 -1.70687 -2.19456
      CHANNELS 3 Zrotation Xrotation Yrotation
      JOINT rShin
      {
        OFFSET 0 -36.8199 0.73152
        CHANNELS 3 Zrotation Xrotation Yrotation
        JOINT rFoot
        {
          OFFSET 0.73152 -45.1104 -5.12064
          CHANNELS 3 Zrotation Xrotation Yrotation
          End Site
          {
            OFFSET -1.1221 -3.69964 12.103
          }
        }
      }
    }
  }
  JOINT lButtock
  {
    OFFSET 8.77824 4.35084 1.2192
    CHANNELS 3 Zrotation Xrotation Yrotation
    JOINT lThigh
    {
      OFFSET 0 -1.70687 -2.19456
      CHANNELS 3 Zrotation Xrotation Yrotation
      JOINT lShin
      {
        OFFSET 0 -36.8199 0.73152
        CHANNELS 3 Zrotation Xrotation Yrotation
        JOINT lFoot
        {
          OFFSET -0.73152 -45.1104 -5.12064
          CHANNELS 3 Zrotation Xrotation Yrotation
          End Site
          {
            OFFSET 1.1221 -3.69964 12.103
          }
        }
      }
    }
  }
}
MOTION
Frames:	4
Frame Time:	0.00833333
97.8769 86.5 -16.0953 1.56287 3.86414 -8.80476 -5.37009 3.79262 1.37071 -1.15556 0.739024 0.336117 -8.3315 13.0029 -11.8537 20.4557 -12.8455 -20.5813 -0 0 0 -0 0 0 -2.14971e-014 3.58878e-014 6.90777e-014 74.9338 -23.7789 -11.7234 -7.0338 -2.52293 12.3474 -3.01177 43.2133 7.5897 3.44187e-011 4.05446e-011 7.13263e-011 6.07747e-011 5.0549e-011 1.20693e-010 3.44237e-011 4.05472e-011 7.13161e-011 7.73091 5.47488 0.417314 3.44178e-011 4.05443e-011 7.13293e-011 2.90554 0.965183 0.102902 3.44189e-011 4.05447e-011 7.1324e-011 10.2786 0.731801 0.0259123 3.44167e-011 4.05454e-011 7.13343e-011 2.22167 -0.733487 -0.20892 -2.16177e-014 3.58975e-014 6.88436e-014 -86.6042 36.8055 15.608 28.2992 -38.3541 -81.0183 1.2766 30.3037 -4.7115 4.13086e-010 -4.16302e-009 -4.16439e-010 7.03656e-010 -7.24484e-009 -7.27423e-010 4.13077e-010 -4.163e-009 -4.16435e-010 -7.73091 5.47488 -0.417314 4.13084e-010 -4.16301e-009 -4.16439e-010 -2.90554 0.965183 -0.102902 4.1308e-010 -4.16304e-009 -4.16443e-010 -10.2786 0.731801 -0.0259123 4.13089e-010 -4.16302e-009 -4.16453e-010 -2.22167 -0.733487 0.20892 -2.03217e-016 0 -3.88251e-019 -2.60861 3.85028 6.89548 -0.089337 23.3021 0.410665 -0.3152 -2.20999 1.77418 2.03217e-016 0 3.88251e-019 2.61393 -27.9059 -1.71867 0.105952 21.4014 -0.214108 0.653929 2.84424 5.52977 
98.2107 86.561 -15.2344 1.89457 3.73278 -8.82801 -5.95089 3.84018 1.44119 -1.08388 0.640881 0.344242 -8.45165 12.853 -11.9906 20.6582 -12.8242 -20.8161 -0 0 0 -0 0 0 1.07337e-015 7.47357e-014 -1.65985e-014 73.9223 -25.5875 -13.2922 -6.85179 -2.43707 12.016 -3.33234 44.9064 8.05261 1.74866e-010 1.4233e-011 -3.63343e-010 2.88876e-010 9.23315e-012 -6.31451e-010 1.7487e-010 1.42354e-011 -3.63353e-010 7.73091 5.47488 0.417314 1.74865e-010 1.42321e-011 -3.6334e-010 2.90554 0.965183 0.102902 1.74866e-010 1.42326e-011 -3.63345e-010 10.2786 0.731801 0.0259123 1.74865e-010 1.42334e-011 -3.63334e-010 2.22167 -0.733487 -0.20892 9.14462e-016 7.47492e-014 -1.6847e-014 -86.4755 36.6403 15.8016 28.2909 -38.4302 -81.1522 1.24657 29.9877 -4.65186 6.10457e-010 -3.69205e-009 -2.90639e-010 1.04736e-009 -6.47393e-009 -5.15212e-010 6.10449e-010 -3.69203e-009 -2.90636e-010 -7.73091 5.47488 -0.417314 6.10455e-010 -3.69204e-009 -2.90639e-010 -2.90554 0.965183 -0.102902 6.1045e-010 -3.69207e-009 -2.90642e-010 -10.2786 0.731801 -0.0259123 6.1046e-010 -3.69205e-009 -2.90652e-010 -2.22167 -0.733487 0.20892 -2.03217e-016 0 -3.88251e-019 -3.17801 3.04441 6.71773 -0.110653 25.1688 0.429043 -0.296257 -0.632394 2.52499 2.03217e-016 0 3.88251e-019 2.03246 -27.5173 -1.78782 0.109088 21.8878 -0.214185 0.69693 2.20202 5.28449 
98.3371 86.5703 -14.289 1.98421 3.58324 -8.87717 -6.25232 3.99378 1.46029 -1.09276 0.586155 0.337868 -8.50993 12.7106 -12.092 20.8213 -13.0189 -20.9564 -0 0 0 -0 0 0 2.30914e-014 6.66109e-014 -8.70991e-014 72.9646 -27.1064 -14.6619 -6.68714 -2.35785 11.7204 -3.7257 46.8045 8.60395 -5.49834e-012 -6.55306e-011 -4.91699e-010 -2.59726e-011 -1.15193e-010 -8.43925e-010 -5.49525e-012 -6.55288e-011 -4.91707e-010 7.73091 5.47488 0.417314 -5.49959e-012 -6.55311e-011 -4.91697e-010 2.90554 0.965183 0.102902 -5.49818e-012 -6.55307e-011 -4.91699e-010 10.2786 0.731801 0.0259123 -5.50009e-012 -6.55294e-011 -4.9169e-010 2.22167 -0.733487 -0.20892 2.29586e-014 6.66234e-014 -8.73356e-014 -86.2196 36.3973 15.8379 28.2861 -38.4747 -81.2303 1.21218 29.6214 -4.58311 3.29536e-010 -2.80786e-010 5.34797e-011 5.69402e-010 -5.43473e-010 8.47013e-011 3.2953e-010 -2.80772e-010 5.34836e-011 -7.73091 5.47488 -0.417314 3.29535e-010 -2.80779e-010 5.34812e-011 -2.90554 0.965183 -0.102902 3.29529e-010 -2.80807e-010 5.34786e-011 -10.2786 0.731801 -0.0259123 3.29539e-010 -2.80787e-010 5.34704e-011 -2.22167 -0.733487 0.20892 -2.03217e-016 0 -3.88251e-019 -3.41604 2.16365 6.76247 -0.135259 27.054 0.443951 -0.34773 1.3236 3.00817 2.03217e-016 0 3.88251e-019 1.76756 -27.1416 -1.81657 0.113532 22.4994 -0.211602 0.74396 1.45551 5.11359 
98.3044 86.5217 -13.4815 1.9401 3.41262 -8.94677 -6.40121 4.22849 1.44225 -1.14268 0.55162 0.320128 -8.52703 12.5633 -12.1692 20.9384 -13.3289 -21.0374 -0 0 0 -0 0 0 4.83373e-014 3.00121e-014 -1.63292e-013 72.0629 -28.323 -15.8894 -6.56258 -2.29958 11.496 -4.19297 48.8234 9.23734 -3.59791e-010 -1.97202e-010 -4.69317e-010 -6.35633e-010 -3.22349e-010 -7.89785e-010 -3.5979e-010 -1.97201e-010 -4.69324e-010 7.73091 5.47488 0.417314 -3.59793e-010 -1.97201e-010 -4.69317e-010 2.90554 0.965183 0.102902 -3.59791e-010 -1.97201e-010 -4.69317e-010 10.2786 0.731801 0.0259123 -3.59794e-010 -1.97199e-010 -4.6931e-010 2.22167 -0.733487 -0.20892 4.82721e-014 3.00202e-014 -1.635e-013 -85.8874 36.1118 15.7787 28.283 -38.5034 -81.2803 1.17362 29.1999 -4.50475 -2.55316e-010 5.27602e-009 5.74876e-010 -4.2978e-010 9.14165e-009 9.9743e-010 -2.55319e-010 5.27602e-009 5.74881e-010 -7.73091 5.47488 -0.417314 -2.55316e-010 5.27602e-009 5.74879e-010 -2.90554 0.965183 -0.102902 -2.55324e-010 5.276e-009 5.74877e-010 -10.2786 0.731801 -0.0259123 -2.55312e-010 5.27602e-009 5.74871e-010 -2.22167 -0.733487 0.20892 -2.03217e-016 0 -3.88251e-019 -3.46361 1.20492 6.92575 -0.162743 28.9864 0.456636 -0.447982 3.58852 3.33773 2.03217e-016 0 3.88251e-019 1.68085 -26.7461 -1.83546 0.118262 23.1549 -0.205884 0.794082 0.628311 5.00144 
